<svg width="10" height="7" viewBox="0 0 10 7" fill="none" xmlns="http://www.w3.org/2000/svg">
<path d="M1.22141 2.988C1.09383 2.8549 0.917849 2.77659 0.731728 2.7701C0.545608 2.76361 0.3644 2.82945 0.227509 2.95333C0.0906175 3.0772 0.00911302 3.24907 0.000718828 3.43158C-0.00767536 3.61409 0.0577193 3.79246 0.182683 3.92792L2.73497 6.64441C3.11443 7.00902 3.67972 7.00902 4.03091 6.66521L4.28811 6.41636C5.21698 5.52026 6.14477 4.62308 7.07147 3.72483L7.09973 3.6971C7.96582 2.85981 8.82743 2.01807 9.68453 1.17192C9.81262 1.04036 9.88286 0.864666 9.88008 0.682755C9.87729 0.500844 9.80171 0.327299 9.66965 0.199567C9.53758 0.0718354 9.35962 0.000157734 9.17415 2.60021e-07C8.98869 -0.000157214 8.8106 0.0712184 8.67831 0.198726C7.82518 1.04046 6.96782 1.87803 6.10623 2.71143L6.07797 2.73915C5.18994 3.60026 4.30079 4.46024 3.4105 5.31909L1.22141 2.988Z" fill="white"/>
</svg>
