<svg width="12" height="12" viewBox="0 0 12 12" fill="none" xmlns="http://www.w3.org/2000/svg">
<path d="M8.39333 1.24623C8.52579 1.11377 8.68304 1.0087 8.8561 0.937012C9.02917 0.865326 9.21466 0.82843 9.40198 0.82843C9.5893 0.82843 9.77479 0.865326 9.94786 0.937012C10.1209 1.0087 10.2782 1.11377 10.4106 1.24623C10.5431 1.37869 10.6482 1.53594 10.7198 1.709C10.7915 1.88207 10.8284 2.06756 10.8284 2.25488C10.8284 2.4422 10.7915 2.62769 10.7198 2.80076C10.6482 2.97382 10.5431 3.13108 10.4106 3.26353L3.60223 10.0719L0.82843 10.8284L1.58492 8.05464L8.39333 1.24623Z" stroke="white" stroke-linecap="round" stroke-linejoin="round"/>
</svg>
