<svg width="12" height="11" viewBox="0 0 12 11" fill="none" xmlns="http://www.w3.org/2000/svg">
<path fill-rule="evenodd" clip-rule="evenodd" d="M8.625 0.734926C8.47726 0.734926 8.33097 0.763369 8.19448 0.81863C8.05799 0.873892 7.93397 0.95489 7.8295 1.057C7.72504 1.15911 7.64217 1.28033 7.58564 1.41375C7.5291 1.54716 7.5 1.69015 7.5 1.83456C7.5 1.97896 7.5291 2.12196 7.58564 2.25537C7.64217 2.38878 7.72504 2.51001 7.8295 2.61212C7.93397 2.71423 8.05799 2.79522 8.19448 2.85049C8.33097 2.90575 8.47726 2.93419 8.625 2.93419C8.92337 2.93419 9.20952 2.81834 9.4205 2.61212C9.63147 2.40589 9.75 2.1262 9.75 1.83456C9.75 1.54292 9.63147 1.26322 9.4205 1.057C9.20952 0.85078 8.92337 0.734926 8.625 0.734926ZM6.7875 1.46801C6.87357 1.05371 7.10352 0.681236 7.4384 0.413694C7.77328 0.146153 8.19249 0 8.625 0C9.05751 0 9.47672 0.146153 9.8116 0.413694C10.1465 0.681236 10.3764 1.05371 10.4625 1.46801H11.6335C11.8359 1.46801 12 1.63212 12 1.83456C12 2.03699 11.8359 2.2011 11.6335 2.2011H10.4625C10.3764 2.6154 10.1465 2.98788 9.8116 3.25542C9.47672 3.52296 9.05751 3.66912 8.625 3.66912C8.19249 3.66912 7.77328 3.52296 7.4384 3.25542C7.10352 2.98788 6.87357 2.6154 6.7875 2.2011H0.366544C0.164107 2.2011 0 2.03699 0 1.83456C0 1.63212 0.164107 1.46801 0.366544 1.46801H6.7875ZM3.375 4.40037C3.07663 4.40037 2.79048 4.51622 2.5795 4.72244C2.36853 4.92866 2.25 5.20836 2.25 5.5C2.25 5.79164 2.36853 6.07134 2.5795 6.27756C2.79048 6.48378 3.07663 6.59963 3.375 6.59963C3.67337 6.59963 3.95952 6.48378 4.1705 6.27756C4.38147 6.07134 4.5 5.79164 4.5 5.5C4.5 5.20836 4.38147 4.92866 4.1705 4.72244C3.95952 4.51622 3.67337 4.40037 3.375 4.40037ZM1.5375 5.13346C1.62357 4.71916 1.85352 4.34668 2.1884 4.07914C2.52328 3.81159 2.94249 3.66544 3.375 3.66544C3.80751 3.66544 4.22672 3.81159 4.5616 4.07914C4.89648 4.34668 5.12643 4.71916 5.2125 5.13346H11.6335C11.8359 5.13346 12 5.29756 12 5.5C12 5.70244 11.8359 5.86654 11.6335 5.86654H5.2125C5.12643 6.28085 4.89648 6.65332 4.5616 6.92086C4.22672 7.18841 3.80751 7.33456 3.375 7.33456C2.94249 7.33456 2.52328 7.18841 2.1884 6.92086C1.85352 6.65332 1.62357 6.28085 1.5375 5.86654H0.366544C0.164108 5.86654 0 5.70244 0 5.5C0 5.29756 0.164107 5.13346 0.366544 5.13346H1.5375ZM8.625 8.06581C8.32663 8.06581 8.04048 8.18166 7.8295 8.38788C7.61853 8.59411 7.5 8.8738 7.5 9.16544C7.5 9.45708 7.61853 9.73678 7.8295 9.943C8.04048 10.1492 8.32663 10.2651 8.625 10.2651C8.92337 10.2651 9.20952 10.1492 9.4205 9.943C9.63147 9.73678 9.75 9.45708 9.75 9.16544C9.75 8.8738 9.63147 8.59411 9.4205 8.38788C9.20952 8.18166 8.92337 8.06581 8.625 8.06581ZM6.7875 8.7989C6.87357 8.3846 7.10352 8.01212 7.4384 7.74458C7.77328 7.47704 8.19249 7.33088 8.625 7.33088C9.05751 7.33088 9.47672 7.47704 9.8116 7.74458C10.1465 8.01212 10.3764 8.3846 10.4625 8.7989H11.6335C11.8359 8.7989 12 8.96301 12 9.16544C12 9.36788 11.8359 9.53199 11.6335 9.53199H10.4625C10.3764 9.94629 10.1465 10.3188 9.8116 10.5863C9.47672 10.8538 9.05751 11 8.625 11C8.19249 11 7.77328 10.8538 7.4384 10.5863C7.10352 10.3188 6.87357 9.94629 6.7875 9.53199H0.366544C0.164107 9.53199 0 9.36788 0 9.16544C0 8.96301 0.164107 8.7989 0.366544 8.7989H6.7875Z" fill="white"/>
</svg>
