<svg width="12" height="12" viewBox="0 0 12 12" fill="none" xmlns="http://www.w3.org/2000/svg">
<path d="M6 12L5.13 11.1499C4.12 10.158 3.285 9.30245 2.625 8.58311C1.965 7.86376 1.44 7.22071 1.05 6.65395C0.66 6.07629 0.385 5.54768 0.225 5.06812C0.075 4.58856 0 4.09809 0 3.59673C0 2.57221 0.315 1.71662 0.945 1.02997C1.575 0.343324 2.36 0 3.3 0C3.82 0 4.315 0.119891 4.785 0.359673C5.255 0.599455 5.66 0.93733 6 1.3733C6.34 0.93733 6.745 0.599455 7.215 0.359673C7.685 0.119891 8.18 0 8.7 0C9.64 0 10.425 0.343324 11.055 1.02997C11.685 1.71662 12 2.57221 12 3.59673C12 4.09809 11.92 4.58856 11.76 5.06812C11.61 5.54768 11.34 6.07629 10.95 6.65395C10.56 7.22071 10.035 7.86376 9.375 8.58311C8.715 9.30245 7.88 10.158 6.87 11.1499L6 12ZM6 10.2343C6.96 9.297 7.75 8.49591 8.37 7.83106C8.99 7.15531 9.48 6.57221 9.84 6.08174C10.2 5.58038 10.45 5.13897 10.59 4.75749C10.73 4.36512 10.8 3.9782 10.8 3.59673C10.8 2.94278 10.6 2.39782 10.2 1.96185C9.8 1.52589 9.3 1.3079 8.7 1.3079C8.23 1.3079 7.795 1.45504 7.395 1.74932C6.995 2.0327 6.72 2.39782 6.57 2.84469H5.43C5.28 2.39782 5.005 2.0327 4.605 1.74932C4.205 1.45504 3.77 1.3079 3.3 1.3079C2.7 1.3079 2.2 1.52589 1.8 1.96185C1.4 2.39782 1.2 2.94278 1.2 3.59673C1.2 3.9782 1.27 4.36512 1.41 4.75749C1.55 5.13897 1.8 5.58038 2.16 6.08174C2.52 6.57221 3.01 7.15531 3.63 7.83106C4.25 8.49591 5.04 9.297 6 10.2343Z" fill="white"/>
</svg>
