<svg>
    <symbol id="trashcan" width="18" height="19" viewBox="0 0 18 19" fill="none" xmlns="http://www.w3.org/2000/svg">
        <path d="M16.6112 3.125H1.48621C1.30387 3.125 1.129 3.19743 1.00007 3.32636C0.871139 3.4553 0.798706 3.63016 0.798706 3.8125C0.798706 3.99484 0.871139 4.1697 1.00007 4.29864C1.129 4.42757 1.30387 4.5 1.48621 4.5H2.17371V16.875C2.17371 17.2397 2.31857 17.5894 2.57643 17.8473C2.8343 18.1051 3.18403 18.25 3.54871 18.25H14.5487C14.9134 18.25 15.2631 18.1051 15.521 17.8473C15.7788 17.5894 15.9237 17.2397 15.9237 16.875V4.5H16.6112C16.7935 4.5 16.9684 4.42757 17.0973 4.29864C17.2263 4.1697 17.2987 3.99484 17.2987 3.8125C17.2987 3.63016 17.2263 3.4553 17.0973 3.32636C16.9684 3.19743 16.7935 3.125 16.6112 3.125ZM14.5487 16.875H3.54871V4.5H14.5487V16.875ZM4.92371 1.0625C4.92371 0.880164 4.99614 0.705295 5.12507 0.576364C5.254 0.447433 5.42887 0.375 5.61121 0.375H12.4862C12.6685 0.375 12.8434 0.447433 12.9723 0.576364C13.1013 0.705295 13.1737 0.880164 13.1737 1.0625C13.1737 1.24484 13.1013 1.4197 12.9723 1.54864C12.8434 1.67757 12.6685 1.75 12.4862 1.75H5.61121C5.42887 1.75 5.254 1.67757 5.12507 1.54864C4.99614 1.4197 4.92371 1.24484 4.92371 1.0625Z" fill="#9E78CF"/>
    </symbol>
    <symbol id="search" width="18" height="18" viewBox="0 0 18 18" fill="none" xmlns="http://www.w3.org/2000/svg">
        <path d="M17.3 17.3C16.9134 17.6866 16.2866 17.6866 15.9 17.3L10.3 11.7C9.8 12.1 9.225 12.4167 8.575 12.65C7.925 12.8833 7.23333 13 6.5 13C4.68333 13 3.14583 12.3708 1.8875 11.1125C0.629167 9.85417 0 8.31667 0 6.5C0 4.68333 0.629167 3.14583 1.8875 1.8875C3.14583 0.629167 4.68333 0 6.5 0C8.31667 0 9.85417 0.629167 11.1125 1.8875C12.3708 3.14583 13 4.68333 13 6.5C13 7.23333 12.8833 7.925 12.65 8.575C12.4167 9.225 12.1 9.8 11.7 10.3L17.3 15.9C17.6866 16.2866 17.6866 16.9134 17.3 17.3ZM6.5 11C7.75 11 8.8125 10.5625 9.6875 9.6875C10.5625 8.8125 11 7.75 11 6.5C11 5.25 10.5625 4.1875 9.6875 3.3125C8.8125 2.4375 7.75 2 6.5 2C5.25 2 4.1875 2.4375 3.3125 3.3125C2.4375 4.1875 2 5.25 2 6.5C2 7.75 2.4375 8.8125 3.3125 9.6875C4.1875 10.5625 5.25 11 6.5 11Z" fill="#EDEFEF"/>
    </symbol>
</svg>