<svg width="12" height="9" viewBox="0 0 12 9" fill="none" xmlns="http://www.w3.org/2000/svg">
<path d="M10.7918 2.05572C10.7378 1.84084 10.6279 1.64395 10.473 1.48495C10.3182 1.32595 10.124 1.21046 9.91005 1.15016C9.12827 0.959991 6.00116 0.959991 6.00116 0.959991C6.00116 0.959991 2.87405 0.959991 2.09227 1.16827C1.8783 1.22857 1.6841 1.34406 1.52928 1.50306C1.37445 1.66206 1.26449 1.85895 1.2105 2.07383C1.06742 2.86419 0.997436 3.66595 1.00142 4.46905C0.996319 5.27819 1.06631 6.08607 1.2105 6.88237C1.27002 7.09058 1.38245 7.27998 1.53691 7.43227C1.69138 7.58455 1.88266 7.69458 2.09227 7.75171C2.87405 7.95999 6.00116 7.95999 6.00116 7.95999C6.00116 7.95999 9.12827 7.95999 9.91005 7.75171C10.124 7.69141 10.3182 7.57592 10.473 7.41692C10.6279 7.25792 10.7378 7.06104 10.7918 6.84615C10.9338 6.06175 11.0038 5.26609 11.0009 4.46905C11.006 3.65991 10.936 2.85203 10.7918 2.05572Z" stroke="#EDEFEF" stroke-linecap="round" stroke-linejoin="round"/>
<path d="M4.97849 5.94964L7.59199 4.46905L4.97849 2.98845V5.94964Z" stroke="#EDEFEF" stroke-linecap="round" stroke-linejoin="round"/>
</svg>
